<svg xmlns="http://www.w3.org/2000/svg" id="Layer_1" data-name="Layer 1" viewBox="0 0 591.31 249.89"><defs><style>      .cls-1 {        fill: #eb7d23;      }      .cls-2 {        fill: #02404f;      }    </style></defs><polygon class="cls-2" points="92.35 119.01 93.43 117.02 123.99 60.26 70.68 60.26 51.24 106.03 45.45 119.65 51.17 131.66 74.18 179.99 128.49 179.99 93.51 120.96 92.35 119.01"></polygon><path class="cls-2" d="M49.83,179.84H0V53.69C0,25.35,22.02,2.06,49.84,0v64.21h0v115.64h0Z"></path><rect class="cls-2" x="135.66" y="60.26" width="49.83" height="119.73"></rect><path class="cls-2" d="M210.7,63.48v-3.61h-16.87v40.19h16.87v79.94h49.84v-79.94h21.69v-40.19h-21.69v3.61-3.61c0-11.39,6.15-18.47,16.05-18.47,1.98,0,3.94.18,5.63.41V1.66c-3.65-.68-10.2-1.66-17.68-1.66-34.72,0-53.84,21.26-53.84,59.87v3.61Z"></path><rect class="cls-2" x="292.98" y="60.26" width="49.83" height="119.73"></rect><path class="cls-2" d="M430.71,60.26l-10.3,64.11-3.95,24.63-3.96-24.63-6.56-40.78c-2.16-13.45-13.77-23.34-27.39-23.34h-27.66l40.44,122.48.45,1.34-.49,1.33-3.61,9.64c-2.89,8.02-9.74,13.45-17.01,13.45-2.26,0-4.29-.41-5.96-.93l-10.95,34.86c4.65,2.55,15.1,7.47,26.55,7.47,28.06,0,43.68-15.59,57.66-57.52l44.03-132.11h-51.29Z"></path><path class="cls-2" d="M528.24,60.68c-22.51,0-37.23,10.36-42.58,14.87l15.11,24.01c4.12-3.02,11.22-7.1,19.51-7.1,17.03,0,23.41,10.34,24.4,15.8l.86,4.72h-22.99c-32.61,0-50.56,11.9-50.56,33.51,0,20.04,14.83,33.51,36.92,33.51,17.71,0,25.7-14.33,26.03-14.94l4.41-8.11,2.93,8.74,3.64,10.9h45.39v-56.24c0-34.01-27.11-59.66-63.07-59.66M529.38,151.62c-3,0-5.93-1.05-8.46-3.05,0,0-.57-.58-.74-.82-.18-.25-.61-1.09-.61-1.09-1.81-5.31-1.2-10.47,1.71-14.54,2.55-3.57,7.99-7.83,19.4-7.85h4.02l.06,4.07c-.02,17.18-8.3,23.27-15.37,23.27"></path><path class="cls-1" d="M343.7,25.98c0,14.35-11.56,25.98-25.81,25.98s-25.81-11.63-25.81-25.98S303.64,0,317.89,0s25.81,11.63,25.81,25.98"></path></svg>